PathFileType	4	(X/Y/Z)	\\147.46.242.158\로컬 디스크 (e)\MOCAP Data\Iguana Capture\iguana\Project 2\Capture day 7\Session 2\Take08.trc
DataRate	CameraRate	NumFrames	NumMarkers	Units	OrigDataRate	OrigDataStartFrame	OrigNumFrames
120.0	120.0	5	23	mm	120.0	65	29130
Frame#	Time	ana:head1			ana:head2			ana:bone1			ana:bone2			ana:bone3			ana:tail1			ana:tail2			ana:tail3			ana:tail4			ana:Rforefoot1			ana:Rforefoot2			ana:Rforefoot3			ana:Lforefoot1			ana:Lforefoot2			ana:Lforefoot3			ana:RhindLeg1			ana:RhindLeg2			ana:RhindLeg3			ana:RhindLeg4			ana:LhindLeg1			ana:LhindLeg2			ana:LhindLeg3			ana:LhindLeg4			
		X1	Y1	Z1	X2	Y2	Z2	X3	Y3	Z3	X4	Y4	Z4	X5	Y5	Z5	X6	Y6	Z6	X7	Y7	Z7	X8	Y8	Z8	X9	Y9	Z9	X10	Y10	Z10	X11	Y11	Z11	X12	Y12	Z12	X13	Y13	Z13	X14	Y14	Z14	X15	Y15	Z15	X16	Y16	Z16	X17	Y17	Z17	X18	Y18	Z18	X19	Y19	Z19	X20	Y20	Z20	X21	Y21	Z21	X22	Y22	Z22	X23	Y23	Z23	

1566	13.042	498.10522	479.15738	52.66714	505.85074	487.08731	53.22868	524.34210	500.38608	46.80356	547.74377	516.61853	43.58254	571.62628	539.07245	36.85565	590.57385	566.66937	30.87301	615.99597	591.25824	20.06929	649.65686	617.98334	8.71177	679.81317	643.13806	3.93973	520.32806	517.02997	36.71466	521.64148	529.38257	27.27460	520.63007	511.82123	7.84615	526.53113	488.12860	32.77258	535.25110	478.77115	32.67870	526.48242	467.52386	23.10448	563.64563	543.39417	30.21873	547.02655	550.99603	32.26005	557.99615	564.93439	21.80650	548.87494	568.21948	16.69065	580.15491	534.58716	28.91341	592.62537	523.02356	20.05840	606.03900	534.44562	6.00460	602.12451	525.75238	0.53316	
1567	13.050	495.56207	478.52832	52.98399	503.29922	486.41501	53.60161	522.07788	499.65619	47.29218	545.66522	515.51544	43.91965	569.23236	537.21326	36.21490	587.80438	565.59161	30.57119	613.04333	590.49152	19.88313	646.77240	617.15198	8.61269	677.26453	641.96100	3.94204	518.35535	516.52954	36.86011	520.15771	527.91705	26.66500	520.94611	513.98456	6.50744	523.47296	486.96646	32.98462	530.76880	476.44812	32.56407	519.89331	465.90253	24.25361	561.08368	541.43396	29.79582	543.82538	547.85352	31.57120	550.96014	562.25848	19.52765	540.72266	562.74115	15.46686	578.13574	533.43933	28.90663	591.30286	522.58966	20.29337	605.76807	533.61835	7.23049	601.84082	525.66327	0.72753	
1568	13.058	492.99347	477.90506	53.27593	500.76642	485.75156	53.99737	519.77991	498.95389	47.78991	543.41156	514.32556	44.07435	567.03638	536.06207	36.21856	585.05048	564.52130	30.18416	610.10303	589.67975	19.57932	643.88159	616.31866	8.42064	674.65601	640.86969	3.93876	516.35223	515.99902	37.01500	518.00116	525.84271	25.38305	520.58734	516.16241	4.95012	520.40106	485.77939	33.09552	526.04071	474.23065	32.10360	513.65265	464.59030	24.62568	558.50702	539.67621	29.33911	540.69049	545.14148	30.69002	543.77179	559.49829	17.11777	533.14587	557.27014	14.12187	575.99579	532.34814	28.84626	589.81287	522.20886	20.54714	605.27106	532.86572	8.30021	601.60284	525.47058	0.99534	
1569	13.067	490.44730	477.23691	53.59504	498.20432	485.05460	54.37050	517.18396	498.22012	47.97094	541.03558	513.26544	44.23036	564.72180	535.05243	36.22342	582.27264	563.50647	29.71312	607.16565	588.81702	19.16876	640.97375	615.41364	8.13707	672.03552	639.80054	3.95554	514.25574	515.40863	37.12450	515.74927	523.67285	24.13502	519.37048	518.68616	3.06955	517.30322	484.54846	33.16034	521.14240	472.24197	31.23940	507.87128	463.47229	24.12387	555.83936	538.15424	28.92732	537.63794	542.80292	29.61732	537.11761	556.51038	14.61645	526.50159	551.93018	12.31596	573.71405	531.30035	28.77033	588.13440	521.88470	20.82710	604.31317	532.40643	9.10888	601.34875	525.24243	1.34103	
1570	13.075	487.91376	476.47873	53.91018	495.65030	484.27136	54.73294	514.52344	497.43106	48.07851	538.51025	512.30237	44.34570	562.23517	534.11078	36.13599	579.46002	562.53931	29.18279	604.19476	587.91455	18.63836	638.08215	614.45001	7.82945	669.41589	638.65393	3.94952	512.02911	514.71631	37.18368	513.49744	521.60773	23.15674	517.25037	521.33997	1.05356	514.10431	483.39270	32.97724	516.17700	470.69336	29.87385	502.64774	462.58029	22.63063	553.14111	537.00079	28.57193	534.70581	540.87402	28.34136	531.67450	553.52869	12.04598	521.19525	547.26160	10.30605	571.30591	530.31342	28.69917	586.24060	521.59485	21.09225	603.10773	532.02533	9.80689	601.10547	524.92126	1.76478	
